<svg width="29" height="28" viewBox="0 0 29 28" fill="none" xmlns="http://www.w3.org/2000/svg">
<path d="M11.4401 2.24219C9.2088 2.24219 7.16896 3.50383 5.6563 5.62188C5.41732 5.95547 5.19255 6.31094 4.9831 6.68828C5.03943 6.79766 5.09521 6.90703 5.15044 7.02187C5.69458 8.16484 6.24474 9.5375 5.77114 10.6859C5.57974 11.1453 5.192 11.4352 4.79169 11.6156C4.39193 11.7906 3.96153 11.8672 3.56669 11.8672C3.48685 11.8672 3.40482 11.8617 3.32278 11.8562C3.232 12.5508 3.18442 13.2672 3.18442 14C3.18442 17.2867 4.14091 20.2563 5.6563 22.3781C7.16896 24.4945 9.2088 25.7578 11.4401 25.7578C13.6713 25.7578 15.7111 24.4945 17.226 22.3781C17.7783 21.6016 18.2541 20.7156 18.6369 19.7422H11.4401V18.7578H26.3151C27.4088 18.7578 27.4088 16.2422 26.3151 16.2422H11.4401V15.2578H19.6486C19.6815 14.8477 19.6979 14.4266 19.6979 14C19.6979 10.7133 18.7408 7.74375 17.226 5.62188C15.7111 3.50383 13.6713 2.24219 11.4401 2.24219ZM3.56724 6.16875C3.36161 6.50781 3.10896 6.95078 2.87216 7.44844C2.3663 8.50391 2.04255 9.75625 2.27224 10.3141C2.3313 10.4563 2.49099 10.6039 2.74036 10.7133C2.98974 10.8227 3.30966 10.8828 3.56724 10.8828C3.82482 10.8828 4.14474 10.8227 4.39411 10.7133C4.64403 10.6039 4.80318 10.4563 4.86278 10.3141C5.09193 9.75625 4.76818 8.50391 4.26286 7.44844C4.02552 6.95078 3.77286 6.50781 3.56724 6.16875ZM7.94005 11.7578C8.68927 11.7578 9.30724 12.3758 9.30724 13.125C9.30724 13.8742 8.68927 14.4922 7.94005 14.4922C7.19083 14.4922 6.57286 13.8742 6.57286 13.125C6.57286 12.3758 7.19083 11.7578 7.94005 11.7578ZM14.9401 11.7578C15.6893 11.7578 16.3072 12.3758 16.3072 13.125C16.3072 13.8742 15.6893 14.4922 14.9401 14.4922C14.1908 14.4922 13.5729 13.8742 13.5729 13.125C13.5729 12.3758 14.1908 11.7578 14.9401 11.7578ZM11.4401 20.9453C12.0252 20.9453 12.5611 21.1203 12.9713 21.4266C13.3869 21.7383 13.6822 22.2086 13.6822 22.75C13.6822 23.2914 13.3869 23.7617 12.9713 24.0734C12.5611 24.3797 12.0252 24.5547 11.4401 24.5547C10.8549 24.5547 10.319 24.3797 9.9088 24.0734C9.49318 23.7617 9.19786 23.2914 9.19786 22.75C9.19786 22.2086 9.49318 21.7383 9.9088 21.4266C10.319 21.1203 10.8549 20.9453 11.4401 20.9453Z" fill="#3D3564"/>
</svg>
